<svg version="1.0" xmlns="http://www.w3.org/2000/svg" viewBox="0 0 1280 777"><path d="M453 2c-9 3-15 7-23 15-32 32-57 113-71 236l-3 21-10-2c-9-3-19-5-33-7-5-1-17-2-35-1a179 179 0 00-67 8l-11 3-9-25C159 138 125 66 92 40 78 30 68 26 55 27c-15 1-26 7-41 22C4 59-1 66 0 72c1 5 2 7 7 9 8 3 21 2 48-3l11-3 6 3c26 14 56 75 89 182 5 19 8 28 7 29-3 1-23 13-31 20a239 239 0 00-81 105c-17 41-21 92-12 139a219 219 0 0064 116c47 48 103 72 171 72a231 231 0 00150-52l7-5c2 2 5 19 6 27l-1 16-1 7-9 5c-16 8-21 13-21 20 0 4 3 7 9 9 4 1 35 1 46-1 10-1 9 0 9-39-1-31-2-48-6-72-1-5-1-6 1-8 3-2 11-15 16-23l5-7 5 4 11 8 7 5 1 8c3 22 4 45 2 64-2 20-2 21-11 28-12 11-19 21-19 28 0 14 15 17 48 11 18-3 16-1 16-38a492 492 0 00-5-84l6 1c16 6 36 11 56 12l12 1 1 8c2 9 2 40 0 47-1 6-1 6-9 12-17 13-22 23-17 31 3 5 7 7 23 7 13-1 31-3 37-5 4-2 4-7 4-41l-1-45-2-14h3l11-2c13-2 28-6 42-11l14-5c4-1 11 37 9 52v7l-9 5c-14 10-19 15-19 22 0 5 4 8 9 10 6 2 21 1 40-2 18-4 17-3 17-18a359 359 0 00-18-90l10-9 10-7 7 6c24 21 52 38 77 49 12 5 12 4 14 18 1 8 1 13-2 17l-11 7c-12 6-21 13-23 17-3 5-2 9 1 13 6 6 18 8 44 8 14 0 15 0 17-2 4-4 6-17 6-38l-1-21c-1-4-2-4 15 0l22 4c12 1 12 1 13 4 1 4 2 22 1 26-1 3-2 4-11 8-16 8-22 15-19 22s11 9 36 9c18 0 20 0 21-2 4-4 5-28 2-53l-1-10h21c49-2 89-10 129-27 31-13 61-34 86-57a186 186 0 001-276c-45-44-102-72-168-82-77-11-155 1-215 34a285 285 0 00-88 75l-15-8c-23-11-47-18-73-21-16-2-60-1-74 2a205 205 0 00-97 44l-3-5c-9-16-38-49-56-64-11-8-27-19-39-25l-9-5v-6l3-21c6-61 17-114 33-151 9-23 21-41 34-53l9-9 12-3c15-5 26-11 31-16 3-3 4-4 4-7l-2-7c-2-4-11-7-23-10-14-3-22-3-30 0z" fill="#CE412B"/></svg>